<?xml version="1.0" standalone="no"?>
<!DOCTYPE svg PUBLIC "-//W3C//DTD SVG 20010904//EN"
 "http://www.w3.org/TR/2001/REC-SVG-20010904/DTD/svg10.dtd">
<svg version="1.0" xmlns="http://www.w3.org/2000/svg"
 width="512.000000pt" height="512.000000pt" viewBox="0 0 512.000000 512.000000"
 preserveAspectRatio="xMidYMid meet">
<metadata>
Created by potrace 1.14, written by Peter Selinger 2001-2017
</metadata>
<g transform="translate(0.000000,512.000000) scale(0.100000,-0.100000)"
fill="#000000" stroke="none">
<path d="M3135 4626 c-50 -22 -72 -56 -115 -171 -22 -61 -44 -119 -49 -130
-11 -26 -33 -84 -132 -350 -45 -121 -102 -272 -126 -335 -24 -63 -48 -126 -52
-140 -5 -14 -57 -153 -116 -310 -59 -157 -122 -325 -140 -375 -18 -49 -55
-148 -82 -220 -28 -71 -107 -283 -177 -470 -69 -187 -130 -349 -135 -360 -5
-11 -18 -47 -31 -80 -12 -33 -25 -69 -30 -80 -4 -11 -20 -54 -35 -95 -57 -155
-84 -228 -118 -315 -31 -82 -114 -301 -174 -465 -30 -81 -27 -135 11 -184 32
-42 50 -53 104 -62 50 -8 101 8 135 44 14 15 45 77 68 137 23 61 50 133 61
160 11 28 23 61 28 75 4 14 157 423 340 910 183 487 339 901 346 920 7 20 155
415 329 880 348 928 337 891 281 965 -15 19 -39 41 -54 48 -37 18 -101 20
-137 3z"/>
<path d="M1375 3666 c-34 -16 -1022 -1002 -1042 -1041 -19 -35 -19 -105 0
-141 9 -16 240 -253 514 -526 519 -518 531 -529 605 -522 118 11 183 155 113
249 -12 17 -210 217 -438 445 -229 228 -417 420 -417 425 0 6 196 205 435 444
311 312 438 444 446 469 43 130 -92 253 -216 198z"/>
<path d="M3615 3666 c-41 -18 -83 -69 -91 -111 -16 -89 -28 -75 449 -552 l441
-443 -434 -435 c-239 -239 -441 -447 -449 -462 -35 -68 1 -173 71 -209 41 -21
104 -22 143 -1 41 21 1027 1010 1042 1044 15 35 15 79 0 121 -8 23 -175 196
-517 538 -519 519 -526 525 -600 524 -14 -1 -39 -7 -55 -14z"/>
</g>
</svg>
